<svg width="24" height="17" viewBox="0 0 24 17" fill="none" xmlns="http://www.w3.org/2000/svg">
<path d="M23.6733 7.70605L16.2908 0.326284C16.0801 0.115628 15.7992 0 15.4997 0C15.1999 0 14.9192 0.115794 14.7084 0.326284L14.0381 0.996462C13.8276 1.20679 13.7116 1.48772 13.7116 1.78725C13.7116 2.08662 13.8276 2.37702 14.0381 2.58735L18.345 6.90197H1.1044C0.487464 6.90197 0 7.38475 0 8.0016V8.94906C0 9.56591 0.487464 10.0974 1.1044 10.0974H18.3939L14.0383 14.4361C13.8277 14.6467 13.7117 14.92 13.7117 15.2196C13.7117 15.5188 13.8277 15.796 14.0383 16.0065L14.7086 16.6745C14.9193 16.8852 15.2 17 15.4999 17C15.7994 17 16.0802 16.8837 16.291 16.6731L23.6734 9.29345C23.8847 9.08213 24.0008 8.80004 24 8.50017C24.0007 8.1993 23.8847 7.91704 23.6733 7.70605Z" fill="#465AF2"/>
</svg>
