<svg width="143" height="40" viewBox="0 0 143 40" fill="none" xmlns="http://www.w3.org/2000/svg">
<path d="M3.92282e-07 15.3846H8.97436V40H2.5641C1.14799 40 3.92282e-07 38.852 3.92282e-07 37.4359V15.3846Z" fill="#45464B"/>
<path d="M12.3077 2.05107e-06H21.282V40H12.3077V2.05107e-06Z" fill="#45464B"/>
<path d="M46.9231 1.93899e-06C48.3392 2.00089e-06 49.4872 1.14799 49.4872 2.5641V8.97436L0 8.97436L2.80201e-07 2.5641C3.42102e-07 1.14799 1.14799 -6.19003e-08 2.5641 0L46.9231 1.93899e-06Z" fill="#45464B"/>
<path d="M49.4872 31.0256V37.4359C49.4872 38.852 48.3392 40 46.9231 40L24.6154 40V31.0256L49.4872 31.0256Z" fill="#45464B"/>
<path d="M49.4872 15.3846V24.359L24.6154 24.359V15.3846L49.4872 15.3846Z" fill="#45464B"/>
<path d="M61.3205 12.0513H63.3974V21.0256H61.3205V12.0513Z" fill="#45464B"/>
<path d="M67.3862 13.7436H64.5144V12.0513H72.3349V13.7436H69.4631V21.0256H67.3862V13.7436Z" fill="#45464B"/>
<path d="M68.2692 35V36.6667H61.3205V27.6923H68.1026V29.359H63.3846V31.3077H67.5513V32.9231H63.3846V35H68.2692Z" fill="#45464B"/>
<path d="M73.973 29.6667C74.8278 29.6667 75.5158 29.9231 76.0371 30.4359C76.5671 30.9487 76.832 31.7094 76.832 32.7179V36.6667H74.832V33.0256C74.832 32.4786 74.7124 32.0726 74.473 31.8077C74.2337 31.5342 73.8876 31.3974 73.4346 31.3974C72.9303 31.3974 72.5286 31.5556 72.2295 31.8718C71.9303 32.1795 71.7807 32.641 71.7807 33.2564V36.6667H69.7807V29.7692H71.691V30.5769C71.9559 30.2863 72.285 30.0641 72.6782 29.9103C73.0713 29.7479 73.503 29.6667 73.973 29.6667Z" fill="#45464B"/>
<path d="M85.8354 29.7692V35.5128C85.8354 36.7778 85.5064 37.7179 84.8482 38.3333C84.1901 38.9487 83.2286 39.2564 81.9636 39.2564C81.297 39.2564 80.6645 39.1752 80.0662 39.0128C79.4679 38.8504 78.9722 38.6154 78.579 38.3077L79.3739 36.8718C79.6645 37.1111 80.032 37.2991 80.4764 37.4359C80.9209 37.5812 81.3653 37.6538 81.8098 37.6538C82.5021 37.6538 83.0106 37.4957 83.3354 37.1795C83.6688 36.8718 83.8354 36.4017 83.8354 35.7692V35.4744C83.314 36.047 82.5876 36.3333 81.6559 36.3333C81.0235 36.3333 80.4423 36.1966 79.9123 35.9231C79.391 35.641 78.9764 35.2479 78.6688 34.7436C78.3611 34.2393 78.2072 33.6581 78.2072 33C78.2072 32.3419 78.3611 31.7607 78.6688 31.2564C78.9764 30.7521 79.391 30.3632 79.9123 30.0897C80.4423 29.8077 81.0235 29.6667 81.6559 29.6667C82.6559 29.6667 83.4166 29.9957 83.938 30.6538V29.7692H85.8354ZM82.0534 34.6923C82.5833 34.6923 83.0149 34.5385 83.3482 34.2308C83.6901 33.9145 83.8611 33.5043 83.8611 33C83.8611 32.4957 83.6901 32.0897 83.3482 31.782C83.0149 31.4658 82.5833 31.3077 82.0534 31.3077C81.5235 31.3077 81.0876 31.4658 80.7457 31.782C80.4038 32.0897 80.2329 32.4957 80.2329 33C80.2329 33.5043 80.4038 33.9145 80.7457 34.2308C81.0876 34.5385 81.5235 34.6923 82.0534 34.6923Z" fill="#45464B"/>
<path d="M87.6969 29.7692H89.6969V36.6667H87.6969V29.7692ZM88.6969 28.8077C88.3294 28.8077 88.0302 28.7009 87.7995 28.4872C87.5687 28.2735 87.4533 28.0085 87.4533 27.6923C87.4533 27.3761 87.5687 27.1111 87.7995 26.8974C88.0302 26.6838 88.3294 26.5769 88.6969 26.5769C89.0644 26.5769 89.3636 26.6795 89.5943 26.8846C89.8251 27.0897 89.9405 27.3462 89.9405 27.6538C89.9405 27.9872 89.8251 28.265 89.5943 28.4872C89.3636 28.7009 89.0644 28.8077 88.6969 28.8077Z" fill="#45464B"/>
<path d="M95.7454 29.6667C96.6001 29.6667 97.2881 29.9231 97.8095 30.4359C98.3394 30.9487 98.6044 31.7094 98.6044 32.7179V36.6667H96.6043V33.0256C96.6043 32.4786 96.4847 32.0726 96.2454 31.8077C96.0061 31.5342 95.6599 31.3974 95.2069 31.3974C94.7026 31.3974 94.3009 31.5556 94.0018 31.8718C93.7026 32.1795 93.5531 32.641 93.5531 33.2564V36.6667H91.5531V29.7692H93.4633V30.5769C93.7283 30.2863 94.0573 30.0641 94.4505 29.9103C94.8437 29.7479 95.2753 29.6667 95.7454 29.6667Z" fill="#45464B"/>
<path d="M107.249 33.2436C107.249 33.2692 107.236 33.4487 107.21 33.7821H101.992C102.086 34.2094 102.309 34.547 102.659 34.7949C103.009 35.0427 103.445 35.1667 103.967 35.1667C104.326 35.1667 104.642 35.1154 104.915 35.0128C105.198 34.9017 105.458 34.7308 105.697 34.5L106.762 35.6538C106.112 36.3974 105.163 36.7692 103.915 36.7692C103.138 36.7692 102.45 36.6197 101.851 36.3205C101.253 36.0128 100.792 35.5897 100.467 35.0513C100.142 34.5128 99.9796 33.9017 99.9796 33.2179C99.9796 32.5427 100.138 31.9359 100.454 31.3974C100.779 30.8504 101.219 30.4273 101.774 30.1282C102.339 29.8205 102.967 29.6667 103.659 29.6667C104.334 29.6667 104.945 29.812 105.492 30.1026C106.039 30.3932 106.467 30.812 106.774 31.359C107.091 31.8974 107.249 32.5256 107.249 33.2436ZM103.672 31.1795C103.219 31.1795 102.839 31.3077 102.531 31.5641C102.223 31.8205 102.035 32.1709 101.967 32.6154H105.364C105.296 32.1795 105.108 31.8333 104.8 31.5769C104.492 31.312 104.116 31.1795 103.672 31.1795Z" fill="#45464B"/>
<path d="M115.337 33.2436C115.337 33.2692 115.324 33.4487 115.298 33.7821H110.08C110.174 34.2094 110.397 34.547 110.747 34.7949C111.097 35.0427 111.533 35.1667 112.055 35.1667C112.414 35.1667 112.73 35.1154 113.003 35.0128C113.285 34.9017 113.546 34.7308 113.785 34.5L114.85 35.6538C114.2 36.3974 113.251 36.7692 112.003 36.7692C111.226 36.7692 110.538 36.6197 109.939 36.3205C109.341 36.0128 108.879 35.5897 108.555 35.0513C108.23 34.5128 108.067 33.9017 108.067 33.2179C108.067 32.5427 108.226 31.9359 108.542 31.3974C108.867 30.8504 109.307 30.4273 109.862 30.1282C110.426 29.8205 111.055 29.6667 111.747 29.6667C112.422 29.6667 113.033 29.812 113.58 30.1026C114.127 30.3932 114.555 30.812 114.862 31.359C115.179 31.8974 115.337 32.5256 115.337 33.2436ZM111.76 31.1795C111.307 31.1795 110.926 31.3077 110.619 31.5641C110.311 31.8205 110.123 32.1709 110.055 32.6154H113.452C113.384 32.1795 113.196 31.8333 112.888 31.5769C112.58 31.312 112.204 31.1795 111.76 31.1795Z" fill="#45464B"/>
<path d="M118.578 30.6795C118.818 30.3462 119.138 30.094 119.54 29.9231C119.95 29.7521 120.42 29.6667 120.95 29.6667V31.5128C120.728 31.4957 120.578 31.4872 120.502 31.4872C119.929 31.4872 119.48 31.6496 119.155 31.9744C118.831 32.2906 118.668 32.7692 118.668 33.4103V36.6667H116.668V29.7692H118.578V30.6795Z" fill="#45464B"/>
<path d="M122.14 29.7692H124.14V36.6667H122.14V29.7692ZM123.14 28.8077C122.772 28.8077 122.473 28.7009 122.242 28.4872C122.011 28.2735 121.896 28.0085 121.896 27.6923C121.896 27.3761 122.011 27.1111 122.242 26.8974C122.473 26.6838 122.772 26.5769 123.14 26.5769C123.507 26.5769 123.806 26.6795 124.037 26.8846C124.268 27.0897 124.383 27.3462 124.383 27.6538C124.383 27.9872 124.268 28.265 124.037 28.4872C123.806 28.7009 123.507 28.8077 123.14 28.8077Z" fill="#45464B"/>
<path d="M130.188 29.6667C131.043 29.6667 131.731 29.9231 132.252 30.4359C132.782 30.9487 133.047 31.7094 133.047 32.7179V36.6667H131.047V33.0256C131.047 32.4786 130.927 32.0726 130.688 31.8077C130.449 31.5342 130.103 31.3974 129.65 31.3974C129.145 31.3974 128.744 31.5556 128.444 31.8718C128.145 32.1795 127.996 32.641 127.996 33.2564V36.6667H125.996V29.7692H127.906V30.5769C128.171 30.2863 128.5 30.0641 128.893 29.9103C129.286 29.7479 129.718 29.6667 130.188 29.6667Z" fill="#45464B"/>
<path d="M142.05 29.7692V35.5128C142.05 36.7778 141.721 37.7179 141.063 38.3333C140.405 38.9487 139.444 39.2564 138.179 39.2564C137.512 39.2564 136.879 39.1752 136.281 39.0128C135.683 38.8504 135.187 38.6154 134.794 38.3077L135.589 36.8718C135.879 37.1111 136.247 37.2991 136.691 37.4359C137.136 37.5812 137.58 37.6538 138.025 37.6538C138.717 37.6538 139.226 37.4957 139.55 37.1795C139.884 36.8718 140.05 36.4017 140.05 35.7692V35.4744C139.529 36.047 138.802 36.3333 137.871 36.3333C137.238 36.3333 136.657 36.1966 136.127 35.9231C135.606 35.641 135.191 35.2479 134.884 34.7436C134.576 34.2393 134.422 33.6581 134.422 33C134.422 32.3419 134.576 31.7607 134.884 31.2564C135.191 30.7521 135.606 30.3632 136.127 30.0897C136.657 29.8077 137.238 29.6667 137.871 29.6667C138.871 29.6667 139.632 29.9957 140.153 30.6538V29.7692H142.05ZM138.268 34.6923C138.798 34.6923 139.23 34.5385 139.563 34.2308C139.905 33.9145 140.076 33.5043 140.076 33C140.076 32.4957 139.905 32.0897 139.563 31.782C139.23 31.4658 138.798 31.3077 138.268 31.3077C137.738 31.3077 137.302 31.4658 136.961 31.782C136.619 32.0897 136.448 32.4957 136.448 33C136.448 33.5043 136.619 33.9145 136.961 34.2308C137.302 34.5385 137.738 34.6923 138.268 34.6923Z" fill="#45464B"/>
</svg>
