<svg width="490" height="475" fill="none" xmlns="http://www.w3.org/2000/svg"><path d="M233.267 211.011L277.644 475h11.758l-27.688-263.989h-28.447z" fill="url(#paint0_radial)"/><path d="M437.709 317.593L454.777 475h-10.241l-25.792-157.407h18.965z" fill="url(#paint1_radial)"/><path d="M303.059 317.593L285.99 475h10.241l25.792-157.407h-18.964z" fill="url(#paint2_radial)"/><path fill="url(#paint3_radial)" d="M312.541 319.489h139.58v27.309h-139.58z"/><path d="M338.334 322.524h109.153l3.118 7.585H343.012l-4.678-7.585z" fill="#CF432A"/><path d="M328.852 317.593L311.783 475h10.241l25.792-157.407h-18.964z" fill="url(#paint4_radial)"/><path d="M347.094 322.144h-18.737l-.863 7.965h18.269l1.331-7.965z" fill="#E95531"/><path d="M463.501 317.593L480.57 475h-10.241l-24.984-152.476-36.083 2.275c-46.737 1.39-71.068.24-109.237-7.206v-13.655c40.319 6.848 65.483 8.373 113.409 8.345 17.362-2.094 24.62-4.857 32.999-12.896 11.987-39.758 19.388-62.011 33.378-101.651 8.44 1.979 9.57 4.799 9.103 10.999l-25.413 98.996v9.862z" fill="url(#paint5_radial)"/><path d="M237.82 236.803h26.551l.759 7.586h-26.172l-1.138-7.586z" fill="#D04328"/><path d="M67.136 211.011L22.758 475H11l27.688-263.989h28.448z" fill="url(#paint6_radial)"/><path fill="url(#paint7_radial)" d="M51.207 211.011h238.197v25.792H51.207z"/><path d="M90.273 211.011H269.49l5.121 7.586H97.954l-7.68-7.586z" fill="#CF432A"/><path d="M38.69 200.391h285.229l-2.655 10.62H45.137l-6.447-10.62z" fill="#F79B50"/><path d="M323.919 200.391H38.689l1.328 3.793h282.954l.948-3.793z" fill="#FCB07E"/><path d="M8.346 200.391L11 211.011h36.507l-1.991-10.62H8.346z" fill="#F6623E"/><path d="M266.646 211.011L311.023 475h11.758l-27.688-263.989h-28.447z" fill="url(#paint8_radial)"/><path d="M266.646 211.011h28.448l.758 7.586h-27.931l-1.275-7.586z" fill="#E95531"/><path d="M100.515 211.011L56.137 475H44.379l27.688-263.989h28.448z" fill="url(#paint9_radial)"/><path d="M100.514 211.011H72.067l-.759 7.586h27.931l1.275-7.586z" fill="#E95531"/><path d="M140.34 105.567l39.067 94.824h131.236l1.138-4.173h-97.099l-36.792-89.892c-1.36-1.821-2.06-2.649-4.552-3.793h-30.343c-1.612.679-2.264 1.321-2.655 3.034z" fill="url(#paint10_radial)"/><path d="M174.855 107.464l37.93 92.927h97.858l1.138-4.173h-97.1l-36.791-89.892c-1.364-1.897-2.274-2.744-4.552-3.793h-4.172c3.131 1.202 4.305 2.306 5.689 4.931z" fill="#AFB9C5"/><ellipse cx="174.232" cy="151.219" rx="5.167" ry="10.062" transform="rotate(-24.38 174.232 151.219)" fill="#fff"/><path d="M96.34 200.391H82.687l-7.784-33.966a2 2 0 011.95-2.447h25.323a2 2 0 011.95 2.447l-7.784 33.966z" fill="url(#paint11_radial)"/><path d="M76.618 173.84l-1.71-7.412a2 2 0 011.948-2.45h25.315a2 2 0 011.949 2.45l-1.71 7.412H76.618z" fill="url(#paint12_radial)"/><path d="M90.65 142.359c-8.193 7.889-5.69 14.666-3.414 17.068 0-17.827 11-9.862 12.517-20.482 1.214-8.496-5.563-11.885-9.103-12.517 3.413 2.023 8.193 8.041 0 15.931z" fill="#F1EEEE"/><path d="M187.442 132.773c153.615-25.792 81.169-205.578-26.929-94.445 0 0-18.586 17.448-58.412 58.032-39.825 40.585-137.684 21.62-85.72-57.273" stroke="#FCB07E" stroke-width="3"/><rect x="254.887" y="59.447" width="31.044" height="29.591" rx="5" transform="rotate(-18.343 254.887 59.447)" fill="#4449BF"/><rect x="256.766" y="56.616" width="30.061" height="29.591" rx="5" transform="rotate(-18.343 256.766 56.616)" fill="url(#paint13_radial)"/><path d="M269.68 61.19l-2.276 7.585 6.448 4.931m7.966-2.655l2.276-7.586-6.448-4.93" stroke="#fff" stroke-width="4" stroke-linecap="round" stroke-linejoin="round"/><path d="M182.606 27.412c.825-2.815-.914-5.857-3.756-6.574l-22.401-5.65c-2.577-.65-5.108.87-5.754 3.455l-5.871 23.49c-.691 2.764 1.031 5.665 3.784 6.374l21.432 5.521c2.509.647 4.997-.768 5.726-3.256l6.84-23.36z" fill="#D14127"/><path d="M181.107 25.044c.819-2.78-.866-5.796-3.663-6.557l-22.104-6.019c-2.584-.703-5.157.79-5.833 3.384l-6.156 23.656c-.716 2.75.971 5.662 3.71 6.406l21.359 5.794c2.524.685 5.047-.725 5.786-3.232l6.901-23.432z" fill="url(#paint14_radial)"/><rect x="154.324" y="16.104" width="15.806" height="4.779" rx="1.5" transform="rotate(16.11 154.324 16.104)" fill="#fff"/><rect x="157.959" y="24.391" width="16.014" height="4.779" rx="1.5" transform="rotate(16.11 157.959 24.39)" fill="#fff"/><rect x="155.984" y="31.128" width="17.967" height="4.869" rx="1.5" transform="rotate(16.11 155.984 31.128)" fill="#fff"/><rect x="148.361" y="36.454" width="16.276" height="4.707" rx="1.5" transform="rotate(16.11 148.361 36.454)" fill="#fff"/><path d="M35.028 100.508c.937-2.74-.605-5.823-3.356-6.71l-16.378-5.274c-2.449-.79-5.002.454-5.893 2.87L2.65 109.698c-.996 2.699.454 5.799 3.165 6.77l16.635 5.955c2.528.905 5.215-.39 6.084-2.931l6.494-18.984z" fill="#BD4283"/><path d="M34.151 98.779c1-2.72-.481-5.839-3.222-6.784l-16.668-5.747c-2.53-.872-5.194.445-6.041 2.987l-6.378 19.133c-.9 2.698.59 5.718 3.277 6.641l16.091 5.532c2.473.85 5.085-.391 5.987-2.845l6.954-18.917z" fill="url(#paint15_radial)"/><path d="M25.464 106.93c.623-1.628-.25-3.516-1.896-4.099l-9.733-3.444a2.815 2.815 0 00-3.645 1.775L7.82 108.2c-.542 1.611.338 3.42 1.94 3.985l9.451 3.337a2.813 2.813 0 003.602-1.662l2.651-6.93zm2.298-6.397c.553-1 .062-2.31-1.018-2.713L15.04 93.442a1.716 1.716 0 00-2.232 1.015 1.945 1.945 0 001.13 2.474l11.704 4.375a1.713 1.713 0 002.119-.773z" fill="#fff"/><path d="M18.646 108.528c.516-1.4-.246-3.007-1.657-3.495a2.417 2.417 0 00-3.113 1.537l-.132.398c-.462 1.385.302 2.936 1.681 3.411a2.408 2.408 0 003.077-1.459l.144-.392z" fill="#E85B9F"/><defs><radialGradient id="paint0_radial" cx="0" cy="0" r="1" gradientUnits="userSpaceOnUse" gradientTransform="matrix(-28.06784 -263.98908 56.1356 -5.96845 289.023 475)"><stop stop-color="#D74828"/><stop offset="1" stop-color="#F05C34"/></radialGradient><radialGradient id="paint1_radial" cx="0" cy="0" r="1" gradientUnits="userSpaceOnUse" gradientTransform="matrix(18.0164 -157.4073 35.96906 4.11692 418.988 475)"><stop stop-color="#D74828"/><stop offset="1" stop-color="#F05C34"/></radialGradient><radialGradient id="paint2_radial" cx="0" cy="0" r="1" gradientUnits="userSpaceOnUse" gradientTransform="matrix(-18.01502 -157.40746 35.9691 -4.1166 321.776 475)"><stop stop-color="#D74828"/><stop offset="1" stop-color="#F05C34"/></radialGradient><radialGradient id="paint3_radial" cx="0" cy="0" r="1" gradientUnits="userSpaceOnUse" gradientTransform="rotate(-11.07 1945.709 -1440.322) scale(142.227 2312.68)"><stop stop-color="#CD4028"/><stop offset=".802" stop-color="#F05E39"/></radialGradient><radialGradient id="paint4_radial" cx="0" cy="0" r="1" gradientUnits="userSpaceOnUse" gradientTransform="matrix(9.00715 157.4075 -36.01688 2.06095 329.556 317.595)"><stop stop-color="#F3974C"/><stop offset="1" stop-color="#FEB453"/></radialGradient><radialGradient id="paint5_radial" cx="0" cy="0" r="1" gradientUnits="userSpaceOnUse" gradientTransform="matrix(-47.24432 277.26472 -184.1646 -31.3806 395.791 197.736)"><stop stop-color="#F89D54"/><stop offset="1" stop-color="#F3954B"/></radialGradient><radialGradient id="paint6_radial" cx="0" cy="0" r="1" gradientUnits="userSpaceOnUse" gradientTransform="rotate(-83.931 269.78 231.173) scale(265.477 56.452)"><stop stop-color="#D74828"/><stop offset="1" stop-color="#F05C34"/></radialGradient><radialGradient id="paint7_radial" cx="0" cy="0" r="1" gradientUnits="userSpaceOnUse" gradientTransform="matrix(238.19665 -25.79231 238.20015 2199.82124 51.587 236.806)"><stop stop-color="#CD4028"/><stop offset=".802" stop-color="#F05E39"/></radialGradient><radialGradient id="paint8_radial" cx="0" cy="0" r="1" gradientUnits="userSpaceOnUse" gradientTransform="matrix(14.03376 263.98924 -56.13564 2.9842 294.334 211.011)"><stop stop-color="#ED5C37"/><stop offset="1" stop-color="#F49647"/></radialGradient><radialGradient id="paint9_radial" cx="0" cy="0" r="1" gradientUnits="userSpaceOnUse" gradientTransform="rotate(93.043 -63.633 140.034) scale(264.362 56.2149)"><stop stop-color="#ED5C37"/><stop offset="1" stop-color="#F49647"/></radialGradient><radialGradient id="paint10_radial" cx="0" cy="0" r="1" gradientUnits="userSpaceOnUse" gradientTransform="matrix(171.44128 97.8582 -171.4412 300.354 140.34 102.533)"><stop stop-color="#F7FBFE"/><stop offset="1" stop-color="#AEBECD"/></radialGradient><radialGradient id="paint11_radial" cx="0" cy="0" r="1" gradientUnits="userSpaceOnUse" gradientTransform="rotate(62.959 -95.022 145.482) scale(40.8812 34.0677)"><stop stop-color="#fff"/><stop offset="1" stop-color="#E9E9E9"/></radialGradient><radialGradient id="paint12_radial" cx="0" cy="0" r="1" gradientUnits="userSpaceOnUse" gradientTransform="matrix(30.3436 9.86169 -30.34363 93.3648 74.342 163.978)"><stop stop-color="#CCD4DE"/><stop offset="1" stop-color="#AFB9C5"/></radialGradient><radialGradient id="paint13_radial" cx="0" cy="0" r="1" gradientUnits="userSpaceOnUse" gradientTransform="matrix(-10.24037 -28.17037 28.61716 -10.40279 279.135 88.032)"><stop stop-color="#826AF4"/><stop offset="1" stop-color="#AC9FF1"/></radialGradient><radialGradient id="paint14_radial" cx="0" cy="0" r="1" gradientUnits="userSpaceOnUse" gradientTransform="rotate(-75.192 110.533 -78.1) scale(34.1323 33.863)"><stop offset=".417" stop-color="#EC9045"/><stop offset="1" stop-color="#F7C7A0"/></radialGradient><radialGradient id="paint15_radial" cx="0" cy="0" r="1" gradientUnits="userSpaceOnUse" gradientTransform="matrix(7.2066 41.3431 -37.30085 6.502 18.45 86.312)"><stop offset=".134" stop-color="#E593C1"/><stop offset=".694" stop-color="#E75A9E"/></radialGradient></defs></svg>