<svg width="900" height="767" fill="none" xmlns="http://www.w3.org/2000/svg"><path d="M0 0h900v767H20c-11.046 0-20-8.954-20-20V0z" fill="#465AF2"/><path d="M458.267 404.011L502.644 668h11.758l-27.688-263.989h-28.447z" fill="url(#paint0_radial)"/><path d="M662.709 510.593L679.777 668h-10.241l-25.792-157.407h18.965z" fill="url(#paint1_radial)"/><path d="M528.059 510.593L510.99 668h10.241l25.792-157.407h-18.964z" fill="url(#paint2_radial)"/><path fill="url(#paint3_radial)" d="M537.541 512.489h139.58v27.309h-139.58z"/><path d="M563.334 515.524h109.153l3.118 7.585H568.012l-4.678-7.585z" fill="#CF432A"/><path d="M553.852 510.593L536.783 668h10.241l25.792-157.407h-18.964z" fill="url(#paint4_radial)"/><path d="M572.094 515.144h-18.737l-.863 7.965h18.269l1.331-7.965z" fill="#E95531"/><path d="M688.501 510.593L705.57 668h-10.241l-24.984-152.476-36.083 2.275c-46.737 1.39-71.068.24-109.237-7.206v-13.655c40.319 6.848 65.483 8.373 113.409 8.345 17.362-2.094 24.62-4.857 32.999-12.896 11.987-39.758 19.388-62.011 33.378-101.651 8.44 1.979 9.57 4.799 9.103 10.999l-25.413 98.996v9.862z" fill="url(#paint5_radial)"/><path d="M462.82 429.803h26.551l.759 7.586h-26.172l-1.138-7.586z" fill="#D04328"/><path d="M292.136 404.011L247.758 668H236l27.689-263.989h28.447z" fill="url(#paint6_radial)"/><path fill="url(#paint7_radial)" d="M276.207 404.011h238.197v25.792H276.207z"/><path d="M315.273 404.011H494.49l5.121 7.586H322.954l-7.681-7.586z" fill="#CF432A"/><path d="M263.689 393.391h285.23l-2.655 10.62H270.137l-6.448-10.62z" fill="#F79B50"/><path d="M548.919 393.391h-285.23l1.328 3.793h282.954l.948-3.793z" fill="#FCB07E"/><path d="M233.346 393.391l2.655 10.62h36.507l-1.991-10.62h-37.171z" fill="#F6623E"/><path d="M491.646 404.011L536.023 668h11.758l-27.688-263.989h-28.447z" fill="url(#paint8_radial)"/><path d="M491.646 404.011h28.448l.758 7.586h-27.931l-1.275-7.586z" fill="#E95531"/><path d="M325.515 404.011L281.137 668h-11.758l27.688-263.989h28.448z" fill="url(#paint9_radial)"/><path d="M325.514 404.011h-28.447l-.759 7.586h27.931l1.275-7.586z" fill="#E95531"/><path d="M365.34 298.567l39.067 94.824h131.236l1.138-4.173h-97.099l-36.792-89.892c-1.36-1.821-2.06-2.649-4.552-3.793h-30.343c-1.612.679-2.264 1.321-2.655 3.034z" fill="url(#paint10_radial)"/><path d="M399.855 300.464l37.93 92.927h97.858l1.138-4.173h-97.1l-36.791-89.892c-1.364-1.897-2.274-2.744-4.552-3.793h-4.172c3.131 1.202 4.305 2.306 5.689 4.931z" fill="#AFB9C5"/><ellipse cx="399.232" cy="344.219" rx="5.167" ry="10.062" transform="rotate(-24.38 399.232 344.219)" fill="#fff"/><path d="M321.341 393.391h-13.655l-7.783-33.966a2 2 0 011.949-2.447h25.323a2 2 0 011.95 2.447l-7.784 33.966z" fill="url(#paint11_radial)"/><path d="M301.618 366.84l-1.711-7.412a2 2 0 011.949-2.45h25.315a2 2 0 011.949 2.45l-1.71 7.412h-25.792z" fill="url(#paint12_radial)"/><path d="M315.65 335.359c-8.193 7.889-5.69 14.666-3.414 17.068 0-17.827 11-9.862 12.517-20.482 1.214-8.496-5.563-11.885-9.103-12.517 3.413 2.023 8.193 8.041 0 15.931z" fill="#F1EEEE"/><path d="M412.442 325.773c153.615-25.792 81.169-205.578-26.929-94.445 0 0-18.586 17.448-58.412 58.032-39.825 40.585-137.684 21.62-85.72-57.273" stroke="#FCB07E" stroke-width="3"/><rect x="479.887" y="252.447" width="31.044" height="29.591" rx="5" transform="rotate(-18.343 479.887 252.447)" fill="#4449BF"/><rect x="481.766" y="249.616" width="30.061" height="29.591" rx="5" transform="rotate(-18.343 481.766 249.616)" fill="url(#paint13_radial)"/><path d="M494.68 254.19l-2.276 7.585 6.448 4.931m7.966-2.655l2.276-7.586-6.448-4.93" stroke="#fff" stroke-width="4" stroke-linecap="round" stroke-linejoin="round"/><path d="M407.606 220.412c.825-2.815-.914-5.857-3.756-6.574l-22.401-5.649c-2.577-.65-5.108.869-5.754 3.454l-5.871 23.49c-.691 2.764 1.031 5.665 3.784 6.374l21.432 5.521c2.509.646 4.997-.768 5.726-3.256l6.84-23.36z" fill="#D14127"/><path d="M406.107 218.043c.819-2.779-.866-5.795-3.663-6.556l-22.104-6.019c-2.584-.703-5.157.79-5.833 3.384l-6.156 23.656c-.716 2.751.971 5.662 3.71 6.406l21.359 5.794c2.524.685 5.047-.725 5.786-3.232l6.901-23.433z" fill="url(#paint14_radial)"/><rect x="379.324" y="209.104" width="15.806" height="4.779" rx="1.5" transform="rotate(16.11 379.324 209.104)" fill="#fff"/><rect x="382.959" y="217.391" width="16.014" height="4.779" rx="1.5" transform="rotate(16.11 382.959 217.391)" fill="#fff"/><rect x="380.984" y="224.128" width="17.967" height="4.869" rx="1.5" transform="rotate(16.11 380.984 224.128)" fill="#fff"/><rect x="373.361" y="229.454" width="16.276" height="4.707" rx="1.5" transform="rotate(16.11 373.361 229.454)" fill="#fff"/><path d="M260.028 293.508c.937-2.741-.605-5.823-3.356-6.709l-16.378-5.275c-2.449-.789-5.002.454-5.893 2.87l-6.751 18.304c-.996 2.699.454 5.799 3.165 6.77l16.635 5.955c2.528.905 5.215-.39 6.084-2.931l6.494-18.984z" fill="#BD4283"/><path d="M259.151 291.779c1-2.72-.481-5.839-3.222-6.784l-16.668-5.747c-2.529-.872-5.194.445-6.041 2.987l-6.378 19.133c-.899 2.698.591 5.718 3.277 6.641l16.091 5.532c2.473.85 5.085-.391 5.987-2.845l6.954-18.917z" fill="url(#paint15_radial)"/><path d="M250.464 299.93c.623-1.628-.251-3.516-1.896-4.099l-9.733-3.444a2.816 2.816 0 00-3.645 1.775l-2.37 7.038c-.542 1.611.338 3.42 1.94 3.985l9.451 3.337a2.813 2.813 0 003.602-1.662l2.651-6.93zm2.298-6.397c.553-.999.062-2.309-1.019-2.713l-11.702-4.378a1.716 1.716 0 00-2.232 1.015 1.946 1.946 0 001.131 2.474l11.703 4.375a1.713 1.713 0 002.119-.773z" fill="#fff"/><path d="M243.646 301.528c.516-1.4-.246-3.007-1.657-3.495a2.417 2.417 0 00-3.113 1.537l-.132.398c-.462 1.385.302 2.936 1.681 3.411a2.41 2.41 0 003.077-1.459l.144-.392z" fill="#E85B9F"/><defs><radialGradient id="paint0_radial" cx="0" cy="0" r="1" gradientUnits="userSpaceOnUse" gradientTransform="matrix(-28.06784 -263.98908 56.1356 -5.96845 514.023 668)"><stop stop-color="#D74828"/><stop offset="1" stop-color="#F05C34"/></radialGradient><radialGradient id="paint1_radial" cx="0" cy="0" r="1" gradientUnits="userSpaceOnUse" gradientTransform="matrix(18.0164 -157.4073 35.96906 4.11692 643.988 668)"><stop stop-color="#D74828"/><stop offset="1" stop-color="#F05C34"/></radialGradient><radialGradient id="paint2_radial" cx="0" cy="0" r="1" gradientUnits="userSpaceOnUse" gradientTransform="matrix(-18.01502 -157.40746 35.9691 -4.1166 546.775 668)"><stop stop-color="#D74828"/><stop offset="1" stop-color="#F05C34"/></radialGradient><radialGradient id="paint3_radial" cx="0" cy="0" r="1" gradientUnits="userSpaceOnUse" gradientTransform="rotate(-11.07 3054.005 -2504.725) scale(142.227 2312.68)"><stop stop-color="#CD4028"/><stop offset=".802" stop-color="#F05E39"/></radialGradient><radialGradient id="paint4_radial" cx="0" cy="0" r="1" gradientUnits="userSpaceOnUse" gradientTransform="matrix(9.00715 157.4075 -36.01688 2.06095 554.555 510.597)"><stop stop-color="#F3974C"/><stop offset="1" stop-color="#FEB453"/></radialGradient><radialGradient id="paint5_radial" cx="0" cy="0" r="1" gradientUnits="userSpaceOnUse" gradientTransform="matrix(-47.24432 277.26472 -184.1646 -31.3806 620.791 390.736)"><stop stop-color="#F89D54"/><stop offset="1" stop-color="#F3954B"/></radialGradient><radialGradient id="paint6_radial" cx="0" cy="0" r="1" gradientUnits="userSpaceOnUse" gradientTransform="rotate(-83.931 489.584 202.578) scale(265.477 56.452)"><stop stop-color="#D74828"/><stop offset="1" stop-color="#F05C34"/></radialGradient><radialGradient id="paint7_radial" cx="0" cy="0" r="1" gradientUnits="userSpaceOnUse" gradientTransform="matrix(238.19665 -25.79231 238.20015 2199.82124 276.59 429.808)"><stop stop-color="#CD4028"/><stop offset=".802" stop-color="#F05E39"/></radialGradient><radialGradient id="paint8_radial" cx="0" cy="0" r="1" gradientUnits="userSpaceOnUse" gradientTransform="matrix(14.03376 263.98924 -56.13564 2.9842 519.334 404.011)"><stop stop-color="#ED5C37"/><stop offset="1" stop-color="#F49647"/></radialGradient><radialGradient id="paint9_radial" cx="0" cy="0" r="1" gradientUnits="userSpaceOnUse" gradientTransform="rotate(93.043 -42.639 343.212) scale(264.362 56.2149)"><stop stop-color="#ED5C37"/><stop offset="1" stop-color="#F49647"/></radialGradient><radialGradient id="paint10_radial" cx="0" cy="0" r="1" gradientUnits="userSpaceOnUse" gradientTransform="matrix(171.44128 97.8582 -171.4412 300.354 365.34 295.533)"><stop stop-color="#F7FBFE"/><stop offset="1" stop-color="#AEBECD"/></radialGradient><radialGradient id="paint11_radial" cx="0" cy="0" r="1" gradientUnits="userSpaceOnUse" gradientTransform="rotate(62.959 -140.121 425.71) scale(40.8812 34.0677)"><stop stop-color="#fff"/><stop offset="1" stop-color="#E9E9E9"/></radialGradient><radialGradient id="paint12_radial" cx="0" cy="0" r="1" gradientUnits="userSpaceOnUse" gradientTransform="matrix(30.3436 9.86169 -30.34363 93.3648 299.342 356.978)"><stop stop-color="#CCD4DE"/><stop offset="1" stop-color="#AFB9C5"/></radialGradient><radialGradient id="paint13_radial" cx="0" cy="0" r="1" gradientUnits="userSpaceOnUse" gradientTransform="matrix(-10.24037 -28.17037 28.61716 -10.40279 504.135 281.032)"><stop stop-color="#826AF4"/><stop offset="1" stop-color="#AC9FF1"/></radialGradient><radialGradient id="paint14_radial" cx="0" cy="0" r="1" gradientUnits="userSpaceOnUse" gradientTransform="rotate(-75.192 348.36 -127.706) scale(34.1323 33.863)"><stop offset=".417" stop-color="#EC9045"/><stop offset="1" stop-color="#F7C7A0"/></radialGradient><radialGradient id="paint15_radial" cx="0" cy="0" r="1" gradientUnits="userSpaceOnUse" gradientTransform="rotate(80.112 -44.38 284.435) scale(41.9665 37.8633)"><stop offset=".134" stop-color="#E593C1"/><stop offset=".694" stop-color="#E75A9E"/></radialGradient></defs></svg>